<?xml version="1.0" standalone="no"?>
<!DOCTYPE svg PUBLIC "-//W3C//DTD SVG 20010904//EN"
 "http://www.w3.org/TR/2001/REC-SVG-20010904/DTD/svg10.dtd">
<svg version="1.0" xmlns="http://www.w3.org/2000/svg"
 width="291.000000pt" height="291.000000pt" viewBox="0 0 291.000000 291.000000"
 preserveAspectRatio="xMidYMid meet">
<metadata>
Created by potrace 1.14, written by Peter Selinger 2001-2017
</metadata>
<g transform="translate(0.000000,291.000000) scale(0.100000,-0.100000)"
fill="#000000" stroke="none">
<path d="M1275 2101 c-187 -96 -554 -284 -970 -496 -148 -76 -272 -139 -274
-142 -3 -2 2 -10 10 -17 8 -7 329 -172 714 -366 l700 -352 718 358 c394 198
717 362 717 365 0 13 -30 29 -485 259 -253 128 -563 286 -690 350 -126 64
-239 120 -250 123 -14 4 -75 -22 -190 -82z"/>
</g>
</svg>
